ffmpeg started on 2016-11-28 at 22:29:16
Report written to "Output/x264/results/ffmpeg/old_town_cross_2160p50ultrafast11000k.log"
Command line:
Tools/ffmpeg/ffmpeg -benchmark -y -i Input/y4m/old_town_cross_2160p50.y4m -c:v libx264 -preset ultrafast -b:v 11000k -an Output/x264/encoded/old_town_cross_2160p50ultrafast11000k.mkv
ffmpeg version N-82227-gdb23fde Copyright (c) 2000-2016 the FFmpeg developers
  built with gcc 5.4.0 (Ubuntu 5.4.0-6ubuntu1~16.04.2) 20160609
  configuration: --prefix=/home/jaroslav/ffmpeg_build --pkg-config-flags=--static --extra-cflags=-I/home/jaroslav/ffmpeg_build/include --extra-ldflags=-L/home/jaroslav/ffmpeg_build/lib --bindir=/home/jaroslav/bin --enable-gpl --enable-libass --enable-libfdk-aac --enable-libfreetype --enable-libmp3lame --enable-libopus --enable-libtheora --enable-libvorbis --enable-libvpx --enable-libx264 --enable-libx265 --enable-nvenc --enable-libmfx --enable-libxvid --enable-libgsm --enable-libopencore-amrnb --enable-version3 --enable-nonfree
  libavutil      55. 35.100 / 55. 35.100
  libavcodec     57. 66.101 / 57. 66.101
  libavformat    57. 57.100 / 57. 57.100
  libavdevice    57.  2.100 / 57.  2.100
  libavfilter     6. 66.100 /  6. 66.100
  libswscale      4.  3.100 /  4.  3.100
  libswresample   2.  4.100 /  2.  4.100
  libpostproc    54.  2.100 / 54.  2.100
Input #0, yuv4mpegpipe, from 'Input/y4m/old_town_cross_2160p50.y4m':
  Duration: 00:00:10.00, start: 0.000000, bitrate: 4976642 kb/s
    Stream #0:0: Video: rawvideo (I420 / 0x30323449), yuv420p(progressive), 3840x2160, SAR 1:1 DAR 16:9, 50 fps, 50 tbr, 50 tbn, 50 tbc
[libx264 @ 0x4368120] using SAR=1/1
[libx264 @ 0x4368120] using cpu capabilities: MMX2 SSE2Fast SSSE3 SSE4.2 AVX FMA3 AVX2 LZCNT BMI2
[libx264 @ 0x4368120] profile Constrained Baseline, level 5.2
[libx264 @ 0x4368120] 264 - core 148 - H.264/MPEG-4 AVC codec - Copyleft 2003-2016 - http://www.videolan.org/x264.html - options: cabac=0 ref=1 deblock=0:0:0 analyse=0:0 me=dia subme=0 psy=1 psy_rd=1.00:0.00 mixed_ref=0 me_range=16 chroma_me=1 trellis=0 8x8dct=0 cqm=0 deadzone=21,11 fast_pskip=1 chroma_qp_offset=0 threads=6 lookahead_threads=1 sliced_threads=0 nr=0 decimate=1 interlaced=0 bluray_compat=0 constrained_intra=0 bframes=0 weightp=0 keyint=250 keyint_min=25 scenecut=0 intra_refresh=0 rc=abr mbtree=0 bitrate=11000 ratetol=1.0 qcomp=0.60 qpmin=0 qpmax=69 qpstep=4 ip_ratio=1.40 aq=0
Output #0, matroska, to 'Output/x264/encoded/old_town_cross_2160p50ultrafast11000k.mkv':
  Metadata:
    encoder         : Lavf57.57.100
    Stream #0:0: Video: h264 (libx264) (H264 / 0x34363248), yuv420p, 3840x2160 [SAR 1:1 DAR 16:9], q=-1--1, 11000 kb/s, 50 fps, 1k tbn, 50 tbc
    Metadata:
      encoder         : Lavc57.66.101 libx264
    Side data:
      cpb: bitrate max/min/avg: 0/0/11000000 buffer size: 0 vbv_delay: -1
Stream mapping:
  Stream #0:0 -> #0:0 (rawvideo (native) -> h264 (libx264))
Press [q] to stop, [?] for help
frame=   49 fps=0.0 q=34.0 size=       1kB time=00:00:00.82 bitrate=   7.1kbits/s speed=1.62x    frame=   97 fps= 95 q=34.0 size=       1kB time=00:00:01.78 bitrate=   3.3kbits/s speed=1.75x    frame=  144 fps= 95 q=33.0 size=       1kB time=00:00:02.72 bitrate=   2.2kbits/s speed=1.79x    frame=  191 fps= 94 q=33.0 size=       1kB time=00:00:03.66 bitrate=   1.6kbits/s speed= 1.8x    frame=  239 fps= 94 q=33.0 size=    5135kB time=00:00:04.62 bitrate=9102.6kbits/s speed=1.82x    frame=  287 fps= 94 q=34.0 size=    6558kB time=00:00:05.58 bitrate=9625.6kbits/s speed=1.83x    frame=  334 fps= 94 q=34.0 size=    6558kB time=00:00:06.52 bitrate=8238.1kbits/s speed=1.83x    frame=  382 fps= 94 q=34.0 size=    6558kB time=00:00:07.48 bitrate=7180.9kbits/s speed=1.84x    frame=  430 fps= 94 q=34.0 size=    6558kB time=00:00:08.44 bitrate=6364.2kbits/s speed=1.84x    frame=  476 fps= 94 q=34.0 size=   11707kB time=00:00:09.36 bitrate=10245.3kbits/s speed=1.84x    frame=  500 fps= 93 q=-1.0 Lsize=   13347kB time=00:00:09.98 bitrate=10954.4kbits/s speed=1.85x    
video:13342kB audio:0kB subtitle:0kB other streams:0kB global headers:0kB muxing overhead: 0.035485%
bench: utime=19.404s
bench: maxrss=374420kB
[libx264 @ 0x4368120] frame I:2     Avg QP:36.00  size:247035
[libx264 @ 0x4368120] frame P:498   Avg QP:33.92  size: 26441
[libx264 @ 0x4368120] mb I  I16..4: 100.0%  0.0%  0.0%
[libx264 @ 0x4368120] mb P  I16..4:  2.5%  0.0%  0.0%  P16..4: 21.2%  0.0%  0.0%  0.0%  0.0%    skip:76.4%
[libx264 @ 0x4368120] final ratefactor: 27.85
[libx264 @ 0x4368120] coded y,uvDC,uvAC intra: 25.3% 30.3% 6.6% inter: 4.1% 4.3% 0.0%
[libx264 @ 0x4368120] i16 v,h,dc,p: 41% 37% 17%  5%
[libx264 @ 0x4368120] i8c dc,h,v,p: 67% 16% 16%  2%
[libx264 @ 0x4368120] kb/s:10929.18
